<svg width="240" height="240" xmlns="http://www.w3.org/2000/svg" xmlns:undefined="http://www.inkscape.org/namespaces/inkscape" xmlns:undefined="http://sodipodi.sourceforge.net/DTD/sodipodi-0.dtd" version="1.1">

 <metadata id="metadata7">image/svg+xml</metadata>
 <g>
  <title>Layer 1</title>
  <g id="layer1"  >
   <g id="g4603">
    <path fill="#1e1e1e"  id="path4387"     d="m232.00003,118.00003c0,61.30359 -49.69647,111 -111.00009,111c-61.30362,0 -110.99994,-49.69641 -110.99994,-111c0,-61.30362 49.69633,-111 110.99994,-111c61.30362,0 111.00009,49.69638 111.00009,111z"/>
    <g id="g4505">
     <g id="g3874">
      <g font-family="Sans" fill="#ffffff" font-weight="normal" font-style="normal" font-size="12px" id="text6746">
       <path fill="#ffffff"  d="m95.72266,40.24805l-1.60547,4.35352l3.2168,0l-1.61133,-4.35352m-0.66797,-1.16602l1.3418,0l3.33398,8.74805l-1.23047,0l-0.79688,-2.24414l-3.94336,0l-0.79688,2.24414l-1.24805,0l3.33984,-8.74805" id="path6751"/>
       <path fill="#ffffff"  d="m101.00195,39.08204l1.18359,0l0,8.74805l-1.18359,0l0,-8.74805" id="path6753"/>
       <path fill="#ffffff"  d="m108.68945,43.72852c0.25391,0.08588 0.5,0.26953 0.73828,0.55078c0.24219,0.28125 0.48438,0.66797 0.72656,1.16016l1.20117,2.39063l-1.27148,0l-1.11914,-2.24414c-0.28906,-0.58594 -0.57031,-0.97461 -0.84375,-1.16602c-0.26953,-0.19141 -0.63867,-0.28711 -1.10742,-0.28711l-1.28907,0l0,3.69727l-1.18359,0l0,-8.74805l2.67188,0c1,0 1.74609,0.20898 2.23827,0.62695c0.4922,0.41797 0.73829,1.04883 0.73829,1.89258c0,0.55078 -0.12891,1.00781 -0.38673,1.37109c-0.2539,0.36328 -0.62499,0.61523 -1.11327,0.75586m-2.96485,-3.67383l0,3.10547l1.48829,0c0.57031,0 1,-0.13086 1.28905,-0.39258c0.29298,-0.26563 0.43946,-0.6543 0.43946,-1.16602c0,-0.51172 -0.14648,-0.89648 -0.43946,-1.1543c-0.28905,-0.26172 -0.71874,-0.39258 -1.28905,-0.39258l-1.48829,0" id="path6755"/>
       <path fill="#ffffff"  d="m118.12891,39.36915l0,1.1543c-0.44923,-0.21484 -0.87305,-0.375 -1.27148,-0.48047c-0.39844,-0.10547 -0.7832,-0.1582 -1.1543,-0.1582c-0.64453,0 -1.14258,0.125 -1.49414,0.375c-0.34766,0.25 -0.52148,0.60547 -0.52148,1.06641c0,0.38672 0.11523,0.67969 0.3457,0.87891c0.23438,0.19531 0.67577,0.35352 1.32422,0.47461l0.71484,0.14648c0.88281,0.16797 1.5332,0.46484 1.95117,0.89063c0.42187,0.42188 0.63281,0.98828 0.63281,1.69922c0,0.84766 -0.28516,1.49023 -0.85547,1.92773c-0.56641,0.4375 -1.39844,0.65625 -2.49609,0.65625c-0.41406,0 -0.85547,-0.04688 -1.32422,-0.14063c-0.46484,-0.09369 -0.94727,-0.23242 -1.44727,-0.41602l0,-1.21875c0.48047,0.26953 0.95117,0.47266 1.41211,0.60938c0.46094,0.13672 0.91406,0.20508 1.35938,0.20508c0.67578,0 1.19726,-0.13281 1.56445,-0.39844c0.36719,-0.26563 0.55078,-0.64453 0.55078,-1.13672c0,-0.42969 -0.13281,-0.76563 -0.39844,-1.00781c-0.26172,-0.24219 -0.69336,-0.42383 -1.29493,-0.54492l-0.7207,-0.14063c-0.88281,-0.17578 -1.52148,-0.45117 -1.91602,-0.82617c-0.39453,-0.375 -0.5918,-0.89648 -0.5918,-1.56445c0,-0.77344 0.27148,-1.38281 0.81445,-1.82813c0.54688,-0.44531 1.29883,-0.66797 2.25586,-0.66797c0.41016,0 0.82813,0.03711 1.2539,0.11133c0.42579,0.07422 0.86134,0.18555 1.30665,0.33398" id="path6757"/>
       <path fill="#ffffff"  d="m121.68555,40.0547l0,3.28711l1.48828,0c0.55077,0 0.97656,-0.14258 1.27734,-0.42773c0.30078,-0.28516 0.45118,-0.69141 0.45118,-1.21875c0,-0.52344 -0.1504,-0.92773 -0.45118,-1.21289c-0.30077,-0.28516 -0.72656,-0.42773 -1.27734,-0.42773l-1.48828,0m-1.1836,-0.97266l2.67188,0c0.98047,0 1.7207,0.22266 2.2207,0.66797c0.50391,0.44141 0.75586,1.08984 0.75586,1.94531c0,0.86328 -0.25195,1.51563 -0.75586,1.95703c-0.5,0.44141 -1.24023,0.66211 -2.2207,0.66211l-1.48828,0l0,3.51563l-1.1836,0l0,-8.74805" id="path6759"/>
       <path fill="#ffffff"  d="m127.74414,39.08204l5.53125,0l0,0.99609l-4.34766,0l0,2.58984l4.16602,0l0,0.99609l-4.16602,0l0,3.16992l4.45313,0l0,0.99609l-5.63672,0l0,-8.74805" id="path6761"/>
       <path fill="#ffffff"  d="m135.33789,39.08204l5.53125,0l0,0.99609l-4.34766,0l0,2.58984l4.16602,0l0,0.99609l-4.16602,0l0,3.16992l4.45313,0l0,0.99609l-5.63672,0l0,-8.74805" id="path6763"/>
       <path fill="#ffffff"  d="m144.11523,40.0547l0,6.80273l1.42969,0c1.20703,0 2.08984,-0.27344 2.64844,-0.82031c0.5625,-0.54688 0.84375,-1.41016 0.84375,-2.58984c0,-1.17188 -0.28125,-2.0293 -0.84375,-2.57227c-0.55859,-0.54688 -1.44141,-0.82031 -2.64844,-0.82031l-1.42969,0m-1.18359,-0.97266l2.43164,0c1.69531,0 2.93945,0.35352 3.73242,1.06055c0.79297,0.70313 1.18945,1.80469 1.18945,3.30469c0,1.50781 -0.39844,2.61523 -1.19531,3.32227c-0.79688,0.70703 -2.03906,1.06055 -3.72656,1.06055l-2.43164,0l0,-8.74805" id="path6765"/>
      </g>
      <g font-family="Sans" fill="#ffffff" font-weight="normal" font-style="normal" font-size="12px" id="text7808">
       <path fill="#ffffff"  d="m101.29784,139.08203l1.18359,0l0,3.69727l3.92578,-3.69727l1.52344,0l-4.3418,4.07813l4.65234,4.66992l-1.55859,0l-4.20117,-4.21289l0,4.21289l-1.18359,0l0,-8.74805" id="path7813"/>
       <path fill="#ffffff"  d="m109.17284,139.08203l1.59375,0l3.87891,7.31836l0,-7.31836l1.14844,0l0,8.74805l-1.59375,0l-3.87891,-7.31836l0,7.31836l-1.14844,0l0,-8.74805" id="path7815"/>
       <path fill="#ffffff"  d="m121.70019,139.88477c-0.85938,0 -1.54297,0.32031 -2.05078,0.96094c-0.50391,0.64063 -0.75586,1.51367 -0.75586,2.61914c0,1.10156 0.25195,1.97266 0.75586,2.61328c0.50781,0.64063 1.19141,0.96094 2.05078,0.96094c0.85938,0 1.53906,-0.32031 2.03906,-0.96094c0.50391,-0.64063 0.75586,-1.51172 0.75586,-2.61328c0,-1.10547 -0.25195,-1.97852 -0.75586,-2.61914c-0.5,-0.64063 -1.17969,-0.96094 -2.03906,-0.96094m0,-0.96094c1.22656,0 2.20703,0.41211 2.94141,1.23633c0.73438,0.82031 1.10156,1.92188 1.10156,3.30469c0,1.37891 -0.36719,2.48047 -1.10156,3.30469c-0.73438,0.82031 -1.71484,1.23047 -2.94141,1.23047c-1.23047,0 -2.21484,-0.41016 -2.95313,-1.23047c-0.73438,-0.82031 -1.10156,-1.92188 -1.10156,-3.30469c0,-1.38281 0.36719,-2.48438 1.10156,-3.30469c0.73828,-0.82422 1.72266,-1.23633 2.95313,-1.23633" id="path7817"/>
       <path fill="#ffffff"  d="m126.38183,139.08203l7.40038,0l0,0.99609l-3.10545,0l0,7.75195l-1.18945,0l0,-7.75195l-3.10548,0l0,-0.99609" id="path7819"/>
       <path fill="#ffffff"  d="m140.1748,139.36914l0,1.1543c-0.44923,-0.21484 -0.87305,-0.375 -1.27148,-0.48047c-0.39844,-0.10547 -0.7832,-0.1582 -1.1543,-0.1582c-0.64453,0 -1.14259,0.125 -1.49414,0.375c-0.34766,0.25 -0.52148,0.60547 -0.52148,1.06641c0,0.38672 0.11523,0.67969 0.3457,0.87891c0.23436,0.19531 0.67578,0.35352 1.32422,0.47461l0.71484,0.14648c0.88281,0.16797 1.5332,0.46484 1.95117,0.89063c0.42188,0.42188 0.6328,0.98828 0.6328,1.69922c0,0.84766 -0.28514,1.49023 -0.85545,1.92773c-0.56641,0.4375 -1.39844,0.65625 -2.49609,0.65625c-0.41406,0 -0.85547,-0.04694 -1.32422,-0.14063c-0.46484,-0.09369 -0.94727,-0.23242 -1.44727,-0.41602l0,-1.21875c0.48047,0.26953 0.95117,0.47266 1.41211,0.60938c0.46094,0.13672 0.91406,0.20508 1.35938,0.20508c0.67578,0 1.19727,-0.13281 1.56445,-0.39844c0.36719,-0.26563 0.55078,-0.64453 0.55078,-1.13672c0,-0.42969 -0.13281,-0.76563 -0.39845,-1.00781c-0.2617,-0.24219 -0.69334,-0.42383 -1.29492,-0.54492l-0.72069,-0.14063c-0.88281,-0.17578 -1.52148,-0.45117 -1.91602,-0.82617c-0.39455,-0.375 -0.59181,-0.89648 -0.59181,-1.56445c0,-0.77344 0.2715,-1.38281 0.81447,-1.82813c0.54688,-0.44531 1.29883,-0.66797 2.25586,-0.66797c0.41016,0 0.82813,0.03705 1.25391,0.11133c0.42578,0.07416 0.86131,0.18555 1.30664,0.33398" id="path7821"/>
      </g>
     </g>
     <g id="g4424">
      <g id="g6624">
       <g font-family="Sans" fill="#ffffff" font-weight="normal" font-style="normal" font-size="12px" id="text6363">
        <path fill="#ffffff"  id="path6568" d="m146.0957,66.6797l-2.88477,4.27246l2.88477,0l0,-4.27246m-0.4375,-2.16699l2.92578,0l0,6.43945l1.45605,0l0,1.90723l-1.45605,0l0,1.85938l-2.48828,0l0,-1.85938l-4.52539,0l0,-2.25586l4.08789,-6.09082"/>
        <path fill="#ffffff"  id="path6570" d="m157.11523,69.60548c0,-1.27606 -0.12079,-2.17383 -0.3623,-2.69336c-0.237,-0.52405 -0.638,-0.78613 -1.20313,-0.78613c-0.56512,0 -0.96844,0.26208 -1.20996,0.78613c-0.24158,0.51953 -0.3623,1.4173 -0.3623,2.69336c0,1.28973 0.12073,2.19891 0.3623,2.72754c0.24152,0.52863 0.64484,0.79297 1.20996,0.79297c0.56055,0 0.96155,-0.26434 1.20313,-0.79297c0.24152,-0.52863 0.3623,-1.43781 0.3623,-2.72754m2.63184,0.02051c0,1.69073 -0.36462,2.9964 -1.09375,3.91699c-0.72919,0.91602 -1.76367,1.37402 -3.10352,1.37402c-1.34442,0 -2.38123,-0.45801 -3.11035,-1.37402c-0.72913,-0.92059 -1.09375,-2.22626 -1.09375,-3.91699c0,-1.69531 0.36462,-3.00098 1.09375,-3.91699c0.72913,-0.92053 1.76593,-1.38086 3.11035,-1.38086c1.33984,0 2.37433,0.46033 3.10352,1.38086c0.72913,0.91602 1.09375,2.22168 1.09375,3.91699"/>
       </g>
       <g font-family="Sans" fill="#ffffff" font-weight="normal" font-style="normal" font-size="12px" id="text6363-7">
        <path fill="#ffffff"  id="path6573" d="m167.63721,98.40968c-0.46033,0 -0.80664,0.15039 -1.03906,0.45117c-0.22791,0.2962 -0.3418,0.74286 -0.3418,1.33984c0,0.59698 0.11389,1.0459 0.3418,1.34668c0.23242,0.2962 0.57874,0.44434 1.03906,0.44434c0.46484,0 0.81116,-0.14813 1.03906,-0.44434c0.23242,-0.30078 0.34863,-0.74969 0.34863,-1.34668c0,-0.59698 -0.11621,-1.04364 -0.34863,-1.33984c-0.22791,-0.30078 -0.57422,-0.45117 -1.03906,-0.45117m3.25391,-4.90137l0,1.88672c-0.43292,-0.20508 -0.84082,-0.35547 -1.22363,-0.45117c-0.38281,-0.10028 -0.75647,-0.15039 -1.12109,-0.15039c-0.78387,0 -1.39453,0.21875 -1.83203,0.65625c-0.4375,0.43292 -0.69269,1.07782 -0.76563,1.93457c0.30078,-0.22333 0.62659,-0.38965 0.97754,-0.49902c0.35089,-0.11389 0.7337,-0.1709 1.14844,-0.1709c1.04358,0 1.8844,0.30536 2.52246,0.91602c0.64258,0.61066 0.96387,1.41046 0.96387,2.39941c0,1.09375 -0.35779,1.97101 -1.07324,2.63184c-0.71545,0.65625 -1.6748,0.98438 -2.87793,0.98438c-1.32617,0 -2.35382,-0.44659 -3.08301,-1.33984c-0.72461,-0.89777 -1.08691,-2.16925 -1.08691,-3.81445c0,-1.68616 0.42383,-3.01007 1.27148,-3.97168c0.85223,-0.96613 2.01886,-1.44922 3.5,-1.44922c0.46936,0 0.92511,0.0365 1.36719,0.10938c0.44202,0.07288 0.87958,0.18231 1.3125,0.32813"/>
        <path fill="#ffffff"  id="path6575" d="m178.74561,98.33448c0,-1.27606 -0.12073,-2.17383 -0.3623,-2.69336c-0.237,-0.52411 -0.638,-0.78613 -1.20313,-0.78613c-0.56512,0 -0.96844,0.26202 -1.20996,0.78613c-0.24158,0.51953 -0.3623,1.4173 -0.3623,2.69336c0,1.28973 0.12073,2.19891 0.3623,2.72754c0.24152,0.52863 0.64484,0.79297 1.20996,0.79297c0.56055,0 0.96155,-0.26434 1.20313,-0.79297c0.24158,-0.52863 0.3623,-1.43781 0.3623,-2.72754m2.63184,0.02051c0,1.69073 -0.36456,2.9964 -1.09375,3.91699c-0.72919,0.91602 -1.76367,1.37402 -3.10352,1.37402c-1.34436,0 -2.38116,-0.45801 -3.11035,-1.37402c-0.72919,-0.92059 -1.09375,-2.22626 -1.09375,-3.91699c0,-1.69531 0.36456,-3.00098 1.09375,-3.91699c0.72919,-0.92059 1.76599,-1.38086 3.11035,-1.38086c1.33984,0 2.37433,0.46027 3.10352,1.38086c0.72919,0.91602 1.09375,2.22168 1.09375,3.91699"/>
       </g>
       <g font-family="Sans" fill="#ffffff" font-weight="normal" font-style="normal" font-size="12px" id="text6363-7-5">
        <path fill="#ffffff"  id="path6578" d="m168.69336,137.26027c-0.49219,0 -0.87042,0.13446 -1.13477,0.40332c-0.26434,0.26886 -0.39648,0.65399 -0.39648,1.15527c0,0.50128 0.13214,0.88641 0.39648,1.15527c0.26434,0.26434 0.64258,0.39648 1.13477,0.39648c0.48767,0 0.86133,-0.13214 1.12109,-0.39648c0.25977,-0.26886 0.38965,-0.65399 0.38965,-1.15527c0,-0.50586 -0.12988,-0.89093 -0.38965,-1.15527c-0.25977,-0.26886 -0.63342,-0.40332 -1.12109,-0.40332m-1.9209,-0.86816c-0.61975,-0.18683 -1.08691,-0.47394 -1.40137,-0.86133c-0.31445,-0.38733 -0.47168,-0.87042 -0.47168,-1.44922c0,-0.86133 0.32129,-1.51758 0.96387,-1.96875c0.64258,-0.45117 1.58594,-0.67676 2.83008,-0.67676c1.23499,0 2.17383,0.22559 2.81641,0.67676c0.64258,0.44659 0.96387,1.10284 0.96387,1.96875c0,0.5788 -0.15948,1.06189 -0.47852,1.44922c-0.31445,0.38739 -0.78156,0.6745 -1.40137,0.86133c0.69275,0.19141 1.21448,0.5036 1.56543,0.93652c0.35547,0.42841 0.5332,0.9707 0.5332,1.62695c0,1.01172 -0.33728,1.77734 -1.01172,2.29688c-0.66992,0.51495 -1.66571,0.77246 -2.9873,0.77246c-1.32617,0 -2.32874,-0.25751 -3.00781,-0.77246c-0.67444,-0.51953 -1.01172,-1.28516 -1.01172,-2.29688c0,-0.65625 0.17542,-1.19855 0.52637,-1.62695c0.35547,-0.43292 0.87952,-0.74512 1.57227,-0.93652m0.61523,-2.04395c0,0.40558 0.11169,0.71777 0.33496,0.93652c0.22784,0.21875 0.55139,0.32813 0.9707,0.32813c0.41016,0 0.72687,-0.10938 0.9502,-0.32813c0.22327,-0.21875 0.33496,-0.53094 0.33496,-0.93652c0,-0.40558 -0.11169,-0.71545 -0.33496,-0.92969c-0.22333,-0.21875 -0.54004,-0.32813 -0.9502,-0.32813c-0.41931,0 -0.74286,0.10938 -0.9707,0.32813c-0.22327,0.21875 -0.33496,0.52863 -0.33496,0.92969"/>
        <path fill="#ffffff"  id="path6580" d="m179.99316,136.71339c0,-1.27606 -0.12079,-2.17383 -0.3623,-2.69336c-0.237,-0.52405 -0.63806,-0.78613 -1.20313,-0.78613c-0.56512,0 -0.96838,0.26208 -1.20996,0.78613c-0.24158,0.51953 -0.3623,1.4173 -0.3623,2.69336c0,1.28973 0.12073,2.19891 0.3623,2.72754c0.24158,0.52863 0.64484,0.79297 1.20996,0.79297c0.56055,0 0.96161,-0.26434 1.20313,-0.79297c0.24152,-0.52863 0.3623,-1.43781 0.3623,-2.72754m2.63184,0.02051c0,1.69073 -0.36456,2.9964 -1.09375,3.91699c-0.72919,0.91602 -1.76367,1.37402 -3.10352,1.37402c-1.34442,0 -2.38123,-0.45801 -3.11035,-1.37402c-0.72913,-0.92059 -1.09375,-2.22626 -1.09375,-3.91699c0,-1.69531 0.36462,-3.00098 1.09375,-3.91699c0.72913,-0.92053 1.76593,-1.38086 3.11035,-1.38086c1.33984,0 2.37433,0.46033 3.10352,1.38086c0.72919,0.91602 1.09375,2.22168 1.09375,3.91699"/>
       </g>
       <g font-family="Sans" fill="#ffffff" font-weight="normal" font-style="normal" font-size="12px" id="text6363-7-5-9">
        <path fill="#ffffff"  id="path6583" d="m136.6582,168.32863l2.32422,0l0,-6.59668l-2.38574,0.49219l0,-1.79102l2.37207,-0.49219l2.50195,0l0,8.3877l2.32422,0l0,1.81836l-7.13672,0l0,-1.81836"/>
        <path fill="#ffffff"  id="path6585" d="m151.19141,165.03371c0,-1.27606 -0.12079,-2.17383 -0.3623,-2.69336c-0.237,-0.52411 -0.63806,-0.78613 -1.20313,-0.78613c-0.56512,0 -0.96844,0.26202 -1.20996,0.78613c-0.24152,0.51953 -0.3623,1.4173 -0.3623,2.69336c0,1.28973 0.12079,2.19891 0.3623,2.72754c0.24152,0.52863 0.64484,0.79297 1.20996,0.79297c0.56055,0 0.96161,-0.26434 1.20313,-0.79297c0.24152,-0.52863 0.3623,-1.43781 0.3623,-2.72754m2.63184,0.02051c0,1.69073 -0.36462,2.9964 -1.09375,3.91699c-0.72919,0.91602 -1.76367,1.37402 -3.10352,1.37402c-1.34436,0 -2.38116,-0.45801 -3.11035,-1.37402c-0.72913,-0.92059 -1.09375,-2.22626 -1.09375,-3.91699c0,-1.69531 0.36462,-3.00098 1.09375,-3.91699c0.72919,-0.92059 1.76599,-1.38086 3.11035,-1.38086c1.33984,0 2.37433,0.46027 3.10352,1.38086c0.72913,0.91602 1.09375,2.22168 1.09375,3.91699"/>
        <path fill="#ffffff"  id="path6587" d="m160.92578,165.03371c0,-1.27606 -0.12079,-2.17383 -0.3623,-2.69336c-0.237,-0.52411 -0.638,-0.78613 -1.20313,-0.78613c-0.56506,0 -0.96844,0.26202 -1.20996,0.78613c-0.24158,0.51953 -0.3623,1.4173 -0.3623,2.69336c0,1.28973 0.12073,2.19891 0.3623,2.72754c0.24152,0.52863 0.6449,0.79297 1.20996,0.79297c0.56055,0 0.96161,-0.26434 1.20313,-0.79297c0.24152,-0.52863 0.3623,-1.43781 0.3623,-2.72754m2.63184,0.02051c0,1.69073 -0.36462,2.9964 -1.09375,3.91699c-0.72919,0.91602 -1.76367,1.37402 -3.10352,1.37402c-1.34442,0 -2.38123,-0.45801 -3.11035,-1.37402c-0.72913,-0.92059 -1.09375,-2.22626 -1.09375,-3.91699c0,-1.69531 0.36462,-3.00098 1.09375,-3.91699c0.72913,-0.92059 1.76593,-1.38086 3.11035,-1.38086c1.33984,0 2.37433,0.46027 3.10352,1.38086c0.72913,0.91602 1.09375,2.22168 1.09375,3.91699"/>
       </g>
       <g font-family="Sans" fill="#ffffff" font-weight="normal" font-style="normal" font-size="12px" id="text6363-7-5-9-2">
        <path fill="#ffffff"  id="path6590" d="m96.37012,176.53175l2.32422,0l0,-6.59668l-2.38574,0.49219l0,-1.79102l2.37207,-0.49219l2.50195,0l0,8.3877l2.32422,0l0,1.81836l-7.13672,0l0,-1.81836"/>
        <path fill="#ffffff"  id="path6592" d="m108.49707,176.41554l4.49121,0l0,1.93457l-7.41699,0l0,-1.93457l3.72559,-3.28809c0.33264,-0.30078 0.57874,-0.59473 0.73828,-0.88184c0.15948,-0.28711 0.23926,-0.58557 0.23926,-0.89551c0,-0.47852 -0.1618,-0.86359 -0.48535,-1.15527c-0.31903,-0.29169 -0.74512,-0.4375 -1.27832,-0.4375c-0.41016,0 -0.85907,0.08893 -1.34668,0.2666c-0.48761,0.17316 -1.00946,0.43292 -1.56543,0.7793l0,-2.24219c0.59241,-0.19592 1.1781,-0.34406 1.75684,-0.44434c0.57874,-0.1048 1.14612,-0.15723 1.70215,-0.15723c1.22137,0 2.16931,0.26886 2.84375,0.80664c0.67902,0.53778 1.01855,1.28741 1.01855,2.24902c0,0.55597 -0.14355,1.0755 -0.43066,1.55859c-0.28711,0.47852 -0.89099,1.12109 -1.81152,1.92773l-2.18066,1.91406"/>
        <path fill="#ffffff"  id="path6594" d="m120.6377,173.23683c0,-1.27606 -0.12079,-2.17383 -0.3623,-2.69336c-0.237,-0.52411 -0.638,-0.78613 -1.20313,-0.78613c-0.56512,0 -0.96844,0.26202 -1.20996,0.78613c-0.24152,0.51953 -0.3623,1.4173 -0.3623,2.69336c0,1.28973 0.12079,2.19891 0.3623,2.72754c0.24152,0.52863 0.64484,0.79297 1.20996,0.79297c0.56055,0 0.96155,-0.26434 1.20313,-0.79297c0.24152,-0.52863 0.3623,-1.43781 0.3623,-2.72754m2.63184,0.02051c0,1.69073 -0.36462,2.9964 -1.09375,3.91699c-0.72919,0.91602 -1.76367,1.37402 -3.10352,1.37402c-1.34436,0 -2.38123,-0.45801 -3.11035,-1.37402c-0.72913,-0.92059 -1.09375,-2.22626 -1.09375,-3.91699c0,-1.69531 0.36462,-3.00098 1.09375,-3.91699c0.72913,-0.92059 1.76599,-1.38086 3.11035,-1.38086c1.33984,0 2.37433,0.46027 3.10352,1.38086c0.72913,0.91602 1.09375,2.22168 1.09375,3.91699"/>
       </g>
       <g font-family="Sans" fill="#ffffff" font-weight="normal" font-style="normal" font-size="12px" id="text6363-7-5-9-2-4">
        <path fill="#ffffff"  id="path6597" d="m67.17188,153.02541l2.32422,0l0,-6.59668l-2.38574,0.49219l0,-1.79102l2.37213,-0.49219l2.50195,0l0,8.3877l2.32416,0l0,1.81836l-7.13672,0l0,-1.81836"/>
        <path fill="#ffffff"  id="path6599" d="m80.41998,146.8047l-2.88477,4.27246l2.88477,0l0,-4.27246m-0.4375,-2.16699l2.92572,0l0,6.43945l1.45605,0l0,1.90723l-1.45605,0l0,1.85938l-2.48822,0l0,-1.85938l-4.52545,0l0,-2.25586l4.08795,-6.09082"/>
        <path fill="#ffffff"  id="path6601" d="m91.43945,149.73048c0,-1.27606 -0.12073,-2.17383 -0.3623,-2.69336c-0.23694,-0.52405 -0.638,-0.78613 -1.20313,-0.78613c-0.56506,0 -0.96838,0.26208 -1.20996,0.78613c-0.24152,0.51953 -0.3623,1.4173 -0.3623,2.69336c0,1.28973 0.12079,2.19891 0.3623,2.72754c0.24158,0.52863 0.6449,0.79297 1.20996,0.79297c0.56055,0 0.96161,-0.26434 1.20313,-0.79297c0.24158,-0.52863 0.3623,-1.43781 0.3623,-2.72754m2.6319,0.02051c0,1.69073 -0.36462,2.9964 -1.09375,3.91699c-0.72919,0.91602 -1.76373,1.37402 -3.10358,1.37402c-1.34436,0 -2.38116,-0.45801 -3.11035,-1.37402c-0.72913,-0.92059 -1.09369,-2.22626 -1.09369,-3.91699c0,-1.69531 0.36456,-3.00098 1.09369,-3.91699c0.72919,-0.92053 1.76599,-1.38086 3.11035,-1.38086c1.33984,0 2.37439,0.46033 3.10358,1.38086c0.72913,0.91602 1.09375,2.22168 1.09375,3.91699"/>
       </g>
       <g font-family="Sans" fill="#ffffff" font-weight="normal" font-style="normal" font-size="12px" id="text6363-7-5-9-2-4-2">
        <path fill="#ffffff"  id="path6604" d="m56.72168,127.80128l2.32422,0l0,-6.59669l-2.38574,0.49219l0,-1.79102l2.37207,-0.49219l2.50195,0l0,8.3877l2.32422,0l0,1.81836l-7.13672,0l0,-1.81836"/>
        <path fill="#ffffff"  id="path6606" d="m69.88086,124.58155c-0.46027,0 -0.80664,0.15039 -1.03906,0.45117c-0.22784,0.2962 -0.3418,0.74286 -0.3418,1.33985c0,0.59698 0.11395,1.0459 0.3418,1.34668c0.23242,0.2962 0.5788,0.44434 1.03906,0.44434c0.46484,0 0.81116,-0.14813 1.03906,-0.44434c0.23242,-0.30078 0.34863,-0.74969 0.34863,-1.34668c0,-0.59699 -0.11621,-1.04365 -0.34863,-1.33985c-0.22791,-0.30078 -0.57422,-0.45117 -1.03906,-0.45117m3.25391,-4.90137l0,1.88672c-0.43298,-0.20508 -0.84082,-0.35547 -1.22363,-0.45117c-0.38281,-0.10022 -0.75653,-0.15039 -1.12109,-0.15039c-0.78387,0 -1.39453,0.21875 -1.83203,0.65625c-0.4375,0.43292 -0.69275,1.07782 -0.76563,1.93457c0.30078,-0.22333 0.62659,-0.38965 0.97754,-0.49902c0.35089,-0.11395 0.73376,-0.1709 1.14844,-0.1709c1.04358,0 1.8844,0.30536 2.52246,0.91602c0.64258,0.61066 0.96387,1.41046 0.96387,2.39942c0,1.09375 -0.35779,1.97101 -1.07324,2.63184c-0.71552,0.65625 -1.6748,0.98438 -2.87793,0.98438c-1.32617,0 -2.35388,-0.44659 -3.08301,-1.33984c-0.72461,-0.89777 -1.08691,-2.16925 -1.08691,-3.81446c0,-1.68622 0.42383,-3.01007 1.27148,-3.97168c0.85223,-0.96613 2.01886,-1.44922 3.5,-1.44922c0.46936,0 0.92511,0.0365 1.36719,0.10938c0.44208,0.07288 0.87952,0.18231 1.3125,0.32813"/>
        <path fill="#ffffff"  id="path6608" d="m80.98926,124.50636c0,-1.27606 -0.12073,-2.17383 -0.3623,-2.69336c-0.237,-0.52405 -0.63806,-0.78613 -1.20313,-0.78613c-0.56512,0 -0.96844,0.26208 -1.20996,0.78613c-0.24158,0.51953 -0.3623,1.4173 -0.3623,2.69336c0,1.28973 0.12073,2.19892 0.3623,2.72755c0.24152,0.52863 0.64484,0.79297 1.20996,0.79297c0.56055,0 0.96161,-0.26434 1.20313,-0.79297c0.24158,-0.52863 0.3623,-1.43781 0.3623,-2.72755m2.63184,0.02051c0,1.69074 -0.36456,2.99641 -1.09375,3.917c-0.72919,0.91602 -1.76367,1.37402 -3.10352,1.37402c-1.34436,0 -2.38116,-0.45801 -3.11035,-1.37402c-0.72913,-0.92059 -1.09375,-2.22626 -1.09375,-3.917c0,-1.69531 0.36462,-3.00098 1.09375,-3.91699c0.72919,-0.92053 1.76599,-1.38086 3.11035,-1.38086c1.33984,0 2.37433,0.46033 3.10352,1.38086c0.72919,0.91602 1.09375,2.22168 1.09375,3.91699"/>
       </g>
       <g font-family="Sans" fill="#ffffff" font-weight="normal" font-style="normal" font-size="12px" id="text6363-7-5-9-2-4-2-9">
        <path fill="#ffffff"  id="path6611" d="m59.26074,104.36378l2.32422,0l0,-6.59668l-2.38574,0.49219l0,-1.79102l2.37207,-0.49219l2.50195,0l0,8.3877l2.32422,0l0,1.81836l-7.13672,0l0,-1.81836"/>
        <path fill="#ffffff"  id="path6613" d="m72.22852,101.61573c-0.49219,0 -0.87042,0.13446 -1.13477,0.40332c-0.26434,0.26886 -0.39648,0.65399 -0.39648,1.15527c0,0.50128 0.13214,0.88641 0.39648,1.15527c0.26434,0.26434 0.64258,0.39648 1.13477,0.39648c0.48767,0 0.86133,-0.13214 1.12109,-0.39648c0.25977,-0.26886 0.38965,-0.65399 0.38965,-1.15527c0,-0.50586 -0.12988,-0.89093 -0.38965,-1.15527c-0.25977,-0.26886 -0.63342,-0.40332 -1.12109,-0.40332m-1.9209,-0.86816c-0.61975,-0.18683 -1.08691,-0.47394 -1.40137,-0.86133c-0.31445,-0.38739 -0.47168,-0.87042 -0.47168,-1.44922c0,-0.86133 0.32129,-1.51758 0.96387,-1.96875c0.64258,-0.45117 1.58594,-0.67676 2.83008,-0.67676c1.23505,0 2.17383,0.22559 2.81641,0.67676c0.64258,0.44659 0.96387,1.10284 0.96387,1.96875c0,0.5788 -0.15955,1.06183 -0.47852,1.44922c-0.31445,0.38739 -0.78156,0.6745 -1.40137,0.86133c0.69269,0.19141 1.21448,0.5036 1.56543,0.93652c0.35547,0.42841 0.5332,0.9707 0.5332,1.62695c0,1.01172 -0.33728,1.77734 -1.01172,2.29688c-0.66992,0.51495 -1.66571,0.77246 -2.9873,0.77246c-1.32617,0 -2.32874,-0.25751 -3.00781,-0.77246c-0.67444,-0.51953 -1.01172,-1.28516 -1.01172,-2.29688c0,-0.65625 0.17548,-1.19855 0.52637,-1.62695c0.35547,-0.43292 0.87952,-0.74512 1.57227,-0.93652m0.61523,-2.04395c0,0.40558 0.11169,0.71777 0.33496,0.93652c0.22784,0.21875 0.55139,0.32813 0.9707,0.32813c0.41016,0 0.72687,-0.10938 0.9502,-0.32813c0.22327,-0.21875 0.33496,-0.53094 0.33496,-0.93652c0,-0.40558 -0.11169,-0.71552 -0.33496,-0.92969c-0.22333,-0.21875 -0.54004,-0.32813 -0.9502,-0.32813c-0.41931,0 -0.74286,0.10938 -0.9707,0.32813c-0.22327,0.21875 -0.33496,0.52869 -0.33496,0.92969"/>
        <path fill="#ffffff"  id="path6615" d="m83.52832,101.06886c0,-1.27606 -0.12079,-2.17383 -0.3623,-2.69336c-0.23694,-0.52405 -0.63806,-0.78613 -1.20313,-0.78613c-0.56506,0 -0.96838,0.26208 -1.20996,0.78613c-0.24158,0.51953 -0.3623,1.4173 -0.3623,2.69336c0,1.28973 0.12073,2.19891 0.3623,2.72754c0.24158,0.52863 0.6449,0.79297 1.20996,0.79297c0.56055,0 0.96155,-0.26434 1.20313,-0.79297c0.24152,-0.52863 0.3623,-1.43781 0.3623,-2.72754m2.63184,0.02051c0,1.69073 -0.36462,2.9964 -1.09375,3.91699c-0.72919,0.91602 -1.76367,1.37402 -3.10352,1.37402c-1.34436,0 -2.38123,-0.45801 -3.11035,-1.37402c-0.72919,-0.92059 -1.09375,-2.22626 -1.09375,-3.91699c0,-1.69531 0.36456,-3.00098 1.09375,-3.91699c0.72913,-0.92053 1.76599,-1.38086 3.11035,-1.38086c1.33984,0 2.37433,0.46033 3.10352,1.38086c0.72913,0.91602 1.09375,2.22168 1.09375,3.91699"/>
       </g>
       <g font-family="Sans" fill="#ffffff" font-weight="normal" font-style="normal" font-size="12px" id="text6363-7-5-9-2-4-2-9-6">
        <path fill="#ffffff"  id="path6618" d="m73.17676,83.54444l4.49121,0l0,1.93457l-7.41699,0l0,-1.93457l3.72559,-3.28809c0.33264,-0.30078 0.5788,-0.59473 0.73828,-0.88184c0.15955,-0.28711 0.23926,-0.58563 0.23926,-0.89551c0,-0.47852 -0.16174,-0.86359 -0.48535,-1.15527c-0.31897,-0.29169 -0.74512,-0.4375 -1.27832,-0.4375c-0.41016,0 -0.85907,0.08893 -1.34668,0.2666c-0.48767,0.17316 -1.0094,0.43292 -1.56543,0.7793l0,-2.24219c0.59241,-0.19592 1.17804,-0.34406 1.75684,-0.44434c0.5788,-0.1048 1.14612,-0.15723 1.70215,-0.15723c1.22131,0 2.16925,0.26892 2.84375,0.80664c0.67902,0.53778 1.01855,1.28741 1.01855,2.24902c0,0.55597 -0.14355,1.0755 -0.43066,1.55859c-0.28711,0.47852 -0.89099,1.12109 -1.81152,1.92773l-2.18066,1.91406"/>
        <path fill="#ffffff"  id="path6620" d="m85.31738,80.36573c0,-1.27606 -0.12079,-2.17383 -0.3623,-2.69336c-0.23694,-0.52411 -0.63806,-0.78613 -1.20313,-0.78613c-0.56506,0 -0.96838,0.26202 -1.20996,0.78613c-0.24158,0.51953 -0.3623,1.4173 -0.3623,2.69336c0,1.28973 0.12073,2.19891 0.3623,2.72754c0.24158,0.52863 0.6449,0.79297 1.20996,0.79297c0.56055,0 0.96161,-0.26434 1.20313,-0.79297c0.24152,-0.52863 0.3623,-1.43781 0.3623,-2.72754m2.63184,0.02051c0,1.69073 -0.36456,2.9964 -1.09375,3.91699c-0.72919,0.91602 -1.76367,1.37402 -3.10352,1.37402c-1.34442,0 -2.38123,-0.45801 -3.11035,-1.37402c-0.72913,-0.92059 -1.09375,-2.22626 -1.09375,-3.91699c0,-1.69531 0.36462,-3.00098 1.09375,-3.91699c0.72913,-0.92059 1.76593,-1.38086 3.11035,-1.38086c1.33984,0 2.37433,0.46027 3.10352,1.38086c0.72919,0.91602 1.09375,2.22168 1.09375,3.91699"/>
        <path fill="#ffffff"  id="path6622" d="m95.05176,80.36573c0,-1.27606 -0.12073,-2.17383 -0.3623,-2.69336c-0.237,-0.52411 -0.63806,-0.78613 -1.20313,-0.78613c-0.56512,0 -0.96844,0.26202 -1.20996,0.78613c-0.24152,0.51953 -0.3623,1.4173 -0.3623,2.69336c0,1.28973 0.12079,2.19891 0.3623,2.72754c0.24152,0.52863 0.64484,0.79297 1.20996,0.79297c0.56055,0 0.96155,-0.26434 1.20313,-0.79297c0.24158,-0.52863 0.3623,-1.43781 0.3623,-2.72754m2.63184,0.02051c0,1.69073 -0.36456,2.9964 -1.09375,3.91699c-0.72919,0.91602 -1.76367,1.37402 -3.10352,1.37402c-1.34442,0 -2.38116,-0.45801 -3.11035,-1.37402c-0.72913,-0.92059 -1.09375,-2.22626 -1.09375,-3.91699c0,-1.69531 0.36462,-3.00098 1.09375,-3.91699c0.72919,-0.92059 1.76593,-1.38086 3.11035,-1.38086c1.33984,0 2.37433,0.46027 3.10352,1.38086c0.72919,0.91602 1.09375,2.22168 1.09375,3.91699"/>
       </g>
      </g>
      <g id="g4378">
       <g id="g5997">
        <path fill="#ffffff"  d="m172.43756,47.20314l-5.875,8.09375c32.08301,23.3097 41.37744,67.08936 21.5625,101.4375l8.65625,5c22.39203,-38.78418 11.88739,-88.20782 -24.34375,-114.53125z" id="path4113-8"/>
        <path fill="#00c300"  d="m175.81256,63.20314l-7.09375,7.0625c0.005,0.005 -0.005,0.02588 0,0.03119c26.34436,26.36169 26.35504,69.08246 0,95.4375c-21.60278,21.60272 -55.01086,25.99414 -81.46875,10.71875l-5,8.65625c30.37756,17.53839 68.7594,12.4906 93.5625,-12.3125c30.26563,-30.26563 30.26563,-79.32813 0,-109.59375l0,0.00006z" id="path4113-8-1-4"/>
        <path fill="#f0f000"  d="m54.43756,129.26564l-9.84375,1.65625c3.85199,22.77429 17.65302,42.63861 37.65625,54.1875l5,-8.65625c-17.42212,-10.05872 -29.45752,-27.35187 -32.8125,-47.1875z" id="path4113-8-1-4-1"/>
       </g>
       <g id="g4261">
        <rect fill="#ff0000" id="rect4159-6-2-2-2-1-2" width="2" height="25" x="-137.5266" y="7.12688" transform="matrix(-0.166769 -0.985996 0.985996 -0.166769 0 0)"  />
        <g id="g4222">
         <g id="g4190">
          <rect fill="#ffffff" id="rect4159-6-0" width="2" height="25" x="68.49936" y="-246.56128" transform="matrix(-0.34202 0.939693 -0.939693 -0.34202 0 0)"  />
          <rect fill="#ffffff" id="rect4159-6-3" width="2" height="25" x="11.61586" y="-261.04031" transform="matrix(-0.642788 0.766044 -0.766044 -0.642788 0 0)"  />
          <rect fill="#ffffff" id="rect4159-6-6" width="2" height="25" x="-46.78909" y="-255.19104" transform="matrix(-0.866025 0.5 -0.5 -0.866025 0 0)"  />
          <rect fill="#ffffff" id="rect4159-6-7" width="2" height="25" x="-99.67128" y="-229.71883" transform="matrix(-0.984808 0.173648 -0.173648 -0.984808 0 0)"  />
          <rect fill="#ffffff" id="rect4159-6-75" width="2" height="25" x="-140.65222" y="-187.69594" transform="matrix(-0.984808 -0.173648 0.173648 -0.984808 0 0)"  />
          <rect fill="#ffffff" id="rect4159-6-2" width="2" height="25" x="-164.78914" y="-134.19106" transform="matrix(-0.866025 -0.5 0.5 -0.866025 0 0)"  />
          <rect fill="#ffffff" id="rect4159-0-5" width="1" height="20" x="94.69594" y="-232.15228" transform="matrix(-0.173648 0.984808 -0.984808 -0.173648 0 0)"  />
          <rect fill="#ffffff" id="rect4159-0-5-8" width="1" height="20" x="41.19101" y="-256.28914" transform="matrix(-0.5 0.866025 -0.866025 -0.5 0 0)"  />
          <rect fill="#ffffff" id="rect4159-0-5-8-9" width="1" height="20" x="-17.34251" y="-260.67052" transform="matrix(-0.766044 0.642788 -0.642788 -0.766044 0 0)"  />
          <rect fill="#ffffff" id="rect4159-0-5-8-9-3" width="1" height="20" x="-73.84445" y="-244.76822" transform="matrix(-0.939693 0.34202 -0.34202 -0.939693 0 0)"  />
          <rect fill="#ffffff" id="rect4159-0-5-8-9-3-9" width="1" height="20" x="-121.50007" y="-1022.86222" transform="translate(0 -812.362) scale(-1 -1)"  />
          <rect fill="#ffffff" id="rect4159-0-5-8-9-3-9-4" width="1" height="20" x="-154.56128" y="-161.99932" transform="matrix(-0.939693 -0.34202 0.34202 -0.939693 0 0)"  />
         </g>
         <g id="g4204">
          <rect fill="#ffffff" id="rect4159-6-2-2" width="2" height="25" x="-169.65597" y="-81.53692" transform="matrix(-0.669131 -0.743145 0.743145 -0.669131 0 0)"  />
          <rect fill="#ffffff" id="rect4159-6-2-2-2" width="2" height="25" x="-158.01356" y="-29.95598" transform="matrix(-0.406737 -0.913546 0.913546 -0.406737 0 0)"  />
          <rect fill="#ffffff" id="rect4159-6-2-2-2-1" width="2" height="25" x="-131.00171" y="15.50278" transform="matrix(-0.104528 -0.994522 0.994522 -0.104528 0 0)"  />
          <rect fill="#ffffff" id="rect4159-0-5-8-9-3-9-4-2" width="1" height="20" x="-168.79451" y="-108.05553" transform="matrix(-0.777146 -0.62932 0.62932 -0.777146 0 0)"  />
          <rect fill="#ffffff" id="rect4159-0-5-8-9-3-9-4-2-7" width="1" height="20" x="-165.3646" y="-55.28826" transform="matrix(-0.544639 -0.838671 0.838671 -0.544639 0 0)"  />
          <rect fill="#ffffff" id="rect4159-0-5-8-9-3-9-4-2-7-3" width="1" height="20" x="-145.79638" y="-6.1636" transform="matrix(-0.258819 -0.965926 0.965926 -0.258819 0 0)"  />
         </g>
         <g id="g4212">
          <rect fill="#ffffff" id="rect4159-6-2-2-2-1-5" width="2" height="25" x="-105.7058" y="40.1715" transform="matrix(0.104528 -0.994522 0.994522 0.104528 0 0)"  />
          <rect fill="#ffffff" id="rect4159-6-2-2-2-1-5-6" width="2" height="25" x="-75.83364" y="59.0419" transform="matrix(0.309017 -0.951057 0.951057 0.309017 0 0)"  />
          <rect fill="#ffffff" id="rect4159-6-2-2-2-1-5-6-0" width="2" height="25" x="-42.69101" y="71.28916" transform="matrix(0.5 -0.866025 0.866025 0.5 0 0)"  />
          <rect fill="#ffffff" id="rect4159-6-2-2-2-1-5-6-0-6" width="2" height="25" x="-7.72628" y="76.37792" transform="matrix(0.669131 -0.743145 0.743145 0.669131 0 0)"  />
          <rect fill="#ffffff" id="rect4159-0-5-8-9-3-9-4-2-7-3-6" width="1" height="20" x="-118.5" y="28.5" transform="matrix(0 -1 1 0 0 0)"  />
          <rect fill="#ffffff" id="rect4159-0-5-8-9-3-9-4-2-7-3-6-2" width="1" height="20" x="-90.76411" y="50.38948" transform="matrix(0.207912 -0.978148 0.978148 0.207912 0 0)"  />
          <rect fill="#ffffff" id="rect4159-0-5-8-9-3-9-4-2-7-3-6-2-3" width="1" height="20" x="-59.08327" y="66.034" transform="matrix(0.406737 -0.913546 0.913546 0.406737 0 0)"  />
          <rect fill="#ffffff" id="rect4159-0-5-8-9-3-9-4-2-7-3-6-2-3-0" width="1" height="20" x="-24.8419" y="74.74978" transform="matrix(0.587785 -0.809017 0.809017 0.587785 0 0)"  />
         </g>
         <g id="g4181">
          <rect fill="#ffffff" id="rect4159-6" width="2" height="25" x="166.24973" y="-68.15798"  transform="matrix(0.809017 0.587785 -0.587785 0.809017 0 0)" />
          <rect fill="#ffffff" id="rect4159-0-55" width="1" height="20" x="168.49859" y="-94.62129"  transform="matrix(0.707107 0.707107 -0.707107 0.707107 0 0)" />
          <rect fill="#ffffff" id="rect4159-0-55-9" width="1" height="20" x="159.57167" y="-146.74097"  transform="matrix(0.453991 0.891007 -0.891007 0.453991 0 0)" />
          <rect fill="#ffffff" id="rect4159-0-55-9-0" width="1" height="20" x="134.97582" y="-193.55106"  transform="matrix(0.156434 0.987688 -0.987688 0.156434 0 0)" />
          <rect fill="#ffffff" id="rect4159-6-74" width="2" height="25" x="165.58603" y="-121.03233"  transform="matrix(0.587785 0.809017 -0.809017 0.587785 0 0)" />
          <rect fill="#ffffff" id="rect4159-6-74-0" width="2" height="25" x="148.61582" y="-171.11382"  transform="matrix(0.309017 0.951057 -0.951057 0.309017 0 0)" />
          <rect fill="#ffffff" id="rect4159-6-74-0-9" width="2" height="25" x="117.00006" y="-213.49999"  transform="matrix(0 1 -1 0 0 0)" />
         </g>
        </g>
       </g>
      </g>
     </g>
    </g>
   </g>
  </g>
  <rect id="svg_1" height="17" width="69" y="35.5" x="86" stroke="#1e1e1e" fill="#1e1e1e"/>
  <text font-weight="bold" xml:space="preserve" text-anchor="start" font-family="Noto Sans JP" font-size="16" id="svg_3" y="46.5" x="67" stroke-width="0" stroke="#1e1e1e" fill="#ffffff">GroundSpeed</text>
 </g>
</svg>