<?xml version="1.0" encoding="UTF-8" standalone="no"?>
<!-- Created with Pixodesk SVG (https://pixodesk.com) -->
<svg xmlns="http://www.w3.org/2000/svg" viewBox="0 0 400 400" text-rendering="geometricPrecision" shape-rendering="geometricPrecision" fill="#1e1e1e">
  <defs>
    <filter id="filter4098">
      <feGaussianBlur id="feGaussianBlur4100" result="result1" stdDeviation="5"/>
      <feComposite id="feComposite4102" in="result1" in2="result1" operator="arithmetic" k2="2"/>
    </filter>
    <filter id="filter4232">
      <feGaussianBlur id="feGaussianBlur4234" result="result1" stdDeviation="5"/>
      <feComposite id="feComposite4236" in="result1" in2="result1" operator="arithmetic" k2="2"/>
    </filter>
  </defs>
  <g id="layer1" transform="translate(0, -812.3622)">
    <g id="g4603" transform="translate(390.2344, 6.6406)">
      <path id="path4387" fill="#1e1e1e" stroke="none" transform="translate(-1111.2729, 620.7148)scale(2.576, 2.4654)" d="M369.5738,123.7141C369.5738,148.5795,350.282,168.7369,326.4845,168.7369C302.6869,168.7369,283.3952,148.5795,283.3952,123.7141C283.3952,98.8487,302.6869,78.6913,326.4845,78.6913C350.282,78.6913,369.5738,98.8487,369.5738,123.7141z"/>
      <g id="g4505">
        <g id="g3874" transform="translate(-658.1615, -6.6406)">
          <g id="text6746" fill="#ffffff" stroke="none" transform="translate(-36.8608, -46.5389)">
            <path id="path6751" fill="#ffffff" d="M399.5107,901.1491L397.9052,905.5026L401.122,905.5026L399.5107,901.1491M398.8427,899.9831L400.1845,899.9831L403.5185,908.7311L402.288,908.7311L401.4911,906.487L397.5478,906.487L396.7509,908.7311L395.5029,908.7311L398.8427,899.9831"/>
            <path id="path6753" fill="#ffffff" d="M404.79,899.9831L405.9736,899.9831L405.9736,908.7311L404.79,908.7311L404.79,899.9831"/>
            <path id="path6755" fill="#ffffff" d="M412.4775,904.6296C412.7314,904.7155,412.9775,904.8991,413.2158,905.1804C413.4579,905.4616,413.7001,905.8483,413.9423,906.3405L415.1435,908.7311L413.872,908.7311L412.7529,906.487C412.4638,905.9011,412.1825,905.5124,411.9091,905.321C411.6396,905.1296,411.2704,905.0339,410.8017,905.0339L409.5126,905.0339L409.5126,908.7311L408.329,908.7311L408.329,899.9831L411.0009,899.9831C412.0009,899.9831,412.747,900.1921,413.2392,900.6101C413.7314,901.028,413.9775,901.6589,413.9775,902.5026C413.9775,903.0534,413.8486,903.5104,413.5908,903.8737C413.3368,904.237,412.9657,904.489,412.4775,904.6296M409.5126,900.9558L409.5126,904.0612L411.0009,904.0612C411.5712,904.0612,412.0009,903.9304,412.29,903.6686C412.5829,903.403,412.7294,903.0144,412.7294,902.5026C412.7294,901.9909,412.5829,901.6062,412.29,901.3483C412.0009,901.0866,411.5712,900.9558,411.0009,900.9558L409.5126,900.9558"/>
            <path id="path6757" fill="#ffffff" d="M421.9169,900.2702L421.9169,901.4245C421.4677,901.2097,421.0439,901.0495,420.6454,900.944C420.247,900.8386,419.8622,900.7858,419.4912,900.7858C418.8466,900.7858,418.3486,900.9108,417.997,901.1608C417.6493,901.4108,417.4755,901.7663,417.4755,902.2272C417.4755,902.614,417.5908,902.9069,417.8212,903.1061C418.0556,903.3015,418.497,903.4597,419.1454,903.5808L419.8603,903.7272C420.7431,903.8952,421.3935,904.1921,421.8115,904.6179C422.2333,905.0397,422.4443,905.6061,422.4443,906.3171C422.4443,907.1647,422.1591,907.8073,421.5888,908.2448C421.0224,908.6823,420.1904,908.9011,419.0927,908.9011C418.6786,908.9011,418.2372,908.8542,417.7685,908.7604C417.3036,908.6667,416.8212,908.528,416.3212,908.3444L416.3212,907.1257C416.8017,907.3952,417.2724,907.5983,417.7333,907.7351C418.1943,907.8718,418.6474,907.9401,419.0927,907.9401C419.7685,907.9401,420.29,907.8073,420.6572,907.5417C421.0243,907.2761,421.2079,906.8972,421.2079,906.405C421.2079,905.9753,421.0751,905.6394,420.8095,905.3972C420.5478,905.155,420.1161,904.9733,419.5146,904.8522L418.7939,904.7116C417.9111,904.5358,417.2724,904.2604,416.8779,903.8854C416.4833,903.5104,416.2861,902.989,416.2861,902.321C416.2861,901.5476,416.5576,900.9382,417.1005,900.4929C417.6474,900.0476,418.3993,899.8249,419.3564,899.8249C419.7665,899.8249,420.1845,899.862,420.6103,899.9362C421.0361,900.0104,421.4716,900.1218,421.9169,900.2702"/>
            <path id="path6759" fill="#ffffff" d="M425.4736,900.9557L425.4736,904.2429L426.9618,904.2429C427.5126,904.2429,427.9384,904.1003,428.2392,903.8151C428.54,903.53,428.6904,903.1237,428.6904,902.5964C428.6904,902.0729,428.54,901.6686,428.2392,901.3835C427.9384,901.0983,427.5126,900.9558,426.9618,900.9557L425.4736,900.9557M424.29,899.9831L426.9619,899.9831C427.9423,899.9831,428.6826,900.2058,429.1826,900.6511C429.6865,901.0925,429.9384,901.7409,429.9384,902.5964C429.9384,903.4597,429.6865,904.112,429.1826,904.5534C428.6826,904.9948,427.9423,905.2155,426.9619,905.2155L425.4736,905.2155L425.4736,908.7311L424.29,908.7311L424.29,899.9831"/>
            <path id="path6761" fill="#ffffff" d="M431.5322,899.9831L437.0634,899.9831L437.0634,900.9792L432.7158,900.9792L432.7158,903.569L436.8818,903.569L436.8818,904.5651L432.7158,904.5651L432.7158,907.735L437.1689,907.735L437.1689,908.7311L431.5322,908.7311L431.5322,899.9831"/>
            <path id="path6763" fill="#ffffff" d="M439.1259,899.9831L444.6572,899.9831L444.6572,900.9792L440.3095,900.9792L440.3095,903.569L444.4755,903.569L444.4755,904.5651L440.3095,904.5651L440.3095,907.735L444.7626,907.735L444.7626,908.7311L439.1259,908.7311L439.1259,899.9831"/>
            <path id="path6765" fill="#ffffff" d="M447.9033,900.9557L447.9033,907.7585L449.3329,907.7585C450.54,907.7585,451.4228,907.4851,451.9814,906.9382C452.5439,906.3913,452.8251,905.528,452.8251,904.3483C452.8251,903.1765,452.5439,902.319,451.9814,901.7761C451.4228,901.2292,450.54,900.9558,449.3329,900.9558L447.9033,900.9558M446.7197,899.9831L449.1513,899.9831C450.8466,899.9831,452.0908,900.3366,452.8837,901.0436C453.6767,901.7468,454.0732,902.8483,454.0732,904.3483C454.0732,905.8561,453.6747,906.9636,452.8779,907.6706C452.081,908.3776,450.8388,908.7311,449.1513,908.7311L446.7197,908.7311L446.7197,899.9831"/>
          </g>
          <g id="text7808" fill="#ffffff" stroke="none" transform="translate(-26.6481, 832.6777)">
            <path id="path7813" fill="#ffffff" d="M394.8731,120.7665L396.0567,120.7665L396.0567,124.4638L399.9825,120.7665L401.5059,120.7665L397.1641,124.8447L401.8165,129.5146L400.2579,129.5146L396.0567,125.3017L396.0567,129.5146L394.8731,129.5146L394.8731,120.7665"/>
            <path id="path7815" fill="#ffffff" d="M402.7481,120.7665L404.3419,120.7665L408.2208,128.0849L408.2208,120.7665L409.3692,120.7665L409.3692,129.5146L407.7754,129.5146L403.8965,122.1962L403.8965,129.5146L402.7481,129.5146L402.7481,120.7665"/>
            <path id="path7817" fill="#ffffff" d="M415.2754,121.5693C414.4161,121.5693,413.7325,121.8896,413.2247,122.5302C412.7208,123.1708,412.4688,124.0439,412.4688,125.1493C412.4688,126.2509,412.7208,127.122,413.2247,127.7626C413.7325,128.4032,414.4161,128.7236,415.2754,128.7236C416.1348,128.7236,416.8145,128.4032,417.3145,127.7626C417.8184,127.122,418.0704,126.2509,418.0704,125.1493C418.0704,124.0439,417.8184,123.1708,417.3145,122.5302C416.8145,121.8896,416.1348,121.5693,415.2754,121.5693M415.2754,120.6083C416.502,120.6083,417.4825,121.0204,418.2169,121.8447C418.9512,122.665,419.3184,123.7665,419.3184,125.1493C419.3184,126.5282,418.9512,127.6298,418.2169,128.454C417.4825,129.2743,416.502,129.6845,415.2754,129.6845C414.045,129.6845,413.0606,129.2743,412.3223,128.454C411.5879,127.6337,411.2208,126.5321,411.2208,125.1493C411.2208,123.7665,411.5879,122.665,412.3223,121.8447C413.0606,121.0204,414.045,120.6083,415.2754,120.6083"/>
            <path id="path7819" fill="#ffffff" d="M419.9571,120.7665L427.3575,120.7665L427.3575,121.7626L424.252,121.7626L424.252,129.5146L423.0626,129.5146L423.0626,121.7626L419.9571,121.7626L419.9571,120.7665"/>
            <path id="path7821" fill="#ffffff" d="M433.7501,121.0536L433.7501,122.2079C433.3008,121.9931,432.877,121.8329,432.4786,121.7275C432.0801,121.622,431.6954,121.5693,431.3243,121.5693C430.6798,121.5693,430.1817,121.6943,429.8301,121.9443C429.4825,122.1943,429.3087,122.5497,429.3087,123.0107C429.3087,123.3974,429.4239,123.6904,429.6544,123.8896C429.8887,124.0849,430.3301,124.2431,430.9786,124.3642L431.6934,124.5107C432.5762,124.6786,433.2266,124.9755,433.6446,125.4013C434.0665,125.8232,434.2774,126.3896,434.2774,127.1005C434.2774,127.9482,433.9922,128.5907,433.4219,129.0282C432.8555,129.4657,432.0235,129.6845,430.9258,129.6845C430.5118,129.6845,430.0704,129.6376,429.6016,129.5439C429.1368,129.4502,428.6544,129.3115,428.1544,129.1278L428.1544,127.9091C428.6348,128.1786,429.1055,128.3818,429.5665,128.5185C430.0274,128.6552,430.4805,128.7236,430.9258,128.7236C431.6016,128.7236,432.1231,128.5907,432.4903,128.3251C432.8575,128.0595,433.0411,127.6806,433.0411,127.1884C433.0411,126.7587,432.9083,126.4228,432.6426,126.1806C432.3809,125.9384,431.9493,125.7568,431.3477,125.6357L430.627,125.495C429.7442,125.3193,429.1055,125.0439,428.711,124.6689C428.3165,124.2939,428.1192,123.7724,428.1192,123.1044C428.1192,122.331,428.3907,121.7216,428.9337,121.2763C429.4805,120.831,430.2325,120.6083,431.1895,120.6083C431.5997,120.6083,432.0176,120.6454,432.4434,120.7196C432.8692,120.7938,433.3047,120.9052,433.7501,121.0536"/>
          </g>
        </g>
        <g id="g4424">
          <g id="g6624" transform="translate(-684.375, 7.8125)">
            <g id="text6363" fill="#ffffff" stroke="none">
              <path id="path6568" fill="#ffffff" d="M439.2363,866.5888L436.3516,870.8612L439.2363,870.8612L439.2363,866.5888M438.7988,864.4217L441.7246,864.4217L441.7246,870.8612L443.1807,870.8612L443.1807,872.7684L441.7246,872.7684L441.7246,874.6278L439.2363,874.6278L439.2363,872.7684L434.7109,872.7684L434.7109,870.5126L438.7988,864.4218"/>
              <path id="path6570" fill="#ffffff" d="M450.2559,869.5145C450.2559,868.2385,450.1351,867.3407,449.8936,866.8212C449.6566,866.2971,449.2555,866.035,448.6904,866.035C448.1253,866.035,447.722,866.2971,447.4805,866.8212C447.2389,867.3407,447.1182,868.2385,447.1182,869.5145C447.1182,870.8042,447.2389,871.7134,447.4805,872.2421C447.722,872.7707,448.1253,873.035,448.6904,873.035C449.251,873.035,449.652,872.7707,449.8936,872.2421C450.1351,871.7134,450.2559,870.8042,450.2559,869.5145M452.8877,869.535C452.8877,871.2258,452.5231,872.5315,451.7939,873.452C451.0648,874.368,450.0303,874.8261,448.6904,874.8261C447.346,874.8261,446.3092,874.368,445.5801,873.452C444.8509,872.5315,444.4863,871.2258,444.4863,869.535C444.4863,867.8397,444.8509,866.5341,445.5801,865.618C446.3092,864.6975,447.346,864.2372,448.6904,864.2372C450.0303,864.2372,451.0648,864.6975,451.7939,865.618C452.5231,866.5341,452.8877,867.8397,452.8877,869.535"/>
            </g>
            <g id="text6363-7" fill="#ffffff" stroke="none">
              <path id="path6573" fill="#ffffff" d="M460.7778,898.3187C460.3175,898.3187,459.9712,898.4691,459.7388,898.7699C459.5109,899.0661,459.397,899.5127,459.397,900.1097C459.397,900.7067,459.5109,901.1556,459.7388,901.4564C459.9712,901.7527,460.3175,901.9008,460.7778,901.9008C461.2427,901.9008,461.589,901.7527,461.8169,901.4564C462.0493,901.1556,462.1655,900.7067,462.1655,900.1097C462.1655,899.5127,462.0493,899.0661,461.8169,898.7699C461.589,898.4691,461.2427,898.3187,460.7778,898.3187M464.0317,893.4174L464.0317,895.3041C463.5988,895.099,463.1909,894.9486,462.8081,894.8529C462.4253,894.7526,462.0516,894.7025,461.687,894.7025C460.9031,894.7025,460.2925,894.9213,459.855,895.3588C459.4175,895.7917,459.1623,896.4366,459.0894,897.2933C459.3901,897.07,459.716,896.9037,460.0669,896.7943C460.4178,896.6804,460.8006,896.6234,461.2153,896.6234C462.2589,896.6234,463.0998,896.9288,463.7378,897.5394C464.3804,898.1501,464.7017,898.9499,464.7017,899.9388C464.7017,901.0326,464.3439,901.9099,463.6284,902.5707C462.9129,903.2269,461.9536,903.555,460.7505,903.555C459.4243,903.555,458.3966,903.1084,457.6675,902.2152C456.9429,901.3174,456.5806,900.0459,456.5806,898.4008C456.5806,896.7146,457.0044,895.3907,457.8521,894.4291C458.7043,893.4629,459.8709,892.9799,461.3521,892.9799C461.8215,892.9799,462.2772,893.0164,462.7192,893.0892C463.1613,893.1621,463.5988,893.2715,464.0317,893.4174"/>
              <path id="path6575" fill="#ffffff" d="M471.8862,898.2435C471.8862,896.9675,471.7655,896.0697,471.5239,895.5502C471.2869,895.0261,470.8859,894.764,470.3208,894.764C469.7557,894.764,469.3524,895.0261,469.1108,895.5502C468.8693,896.0697,468.7485,896.9675,468.7485,898.2435C468.7485,899.5332,468.8693,900.4424,469.1108,900.9711C469.3524,901.4997,469.7557,901.764,470.3208,901.764C470.8813,901.764,471.2824,901.4997,471.5239,900.9711C471.7655,900.4424,471.8862,899.5332,471.8862,898.2435M474.5181,898.264C474.5181,899.9548,474.1535,901.2604,473.4243,902.181C472.6951,903.097,471.6606,903.555,470.3208,903.555C468.9764,903.555,467.9396,903.097,467.2105,902.181C466.4813,901.2604,466.1167,899.9548,466.1167,898.264C466.1167,896.5687,466.4813,895.2631,467.2105,894.347C467.9396,893.4265,468.9764,892.9662,470.3208,892.9662C471.6606,892.9662,472.6951,893.4265,473.4243,894.347C474.1535,895.2631,474.5181,896.5687,474.5181,898.264"/>
            </g>
            <g id="text6363-7-5" fill="#ffffff" stroke="none">
              <path id="path6578" fill="#ffffff" d="M461.834,937.1693C461.3418,937.1693,460.9635,937.3038,460.6992,937.5726C460.4349,937.8415,460.3027,938.2266,460.3027,938.7279C460.3027,939.2292,460.4349,939.6143,460.6992,939.8832C460.9635,940.1475,461.3418,940.2797,461.834,940.2797C462.3216,940.2797,462.6953,940.1475,462.9551,939.8832C463.2148,939.6143,463.3447,939.2292,463.3447,938.7279C463.3447,938.222,463.2148,937.837,462.9551,937.5726C462.6953,937.3038,462.3216,937.1693,461.834,937.1693M459.9131,936.3012C459.2933,936.1143,458.8262,935.8272,458.5117,935.4398C458.1973,935.0525,458.04,934.5694,458.04,933.9906C458.04,933.1293,458.3613,932.473,459.0039,932.0219C459.6465,931.5707,460.5898,931.3451,461.834,931.3451C463.069,931.3451,464.0078,931.5707,464.6504,932.0219C465.293,932.4685,465.6143,933.1247,465.6143,933.9906C465.6143,934.5694,465.4547,935.0525,465.1357,935.4398C464.8213,935.8272,464.3542,936.1143,463.7344,936.3012C464.4271,936.4926,464.9489,936.8047,465.2998,937.2377C465.6553,937.6661,465.833,938.2084,465.833,938.8646C465.833,939.8763,465.4958,940.642,464.8213,941.1615C464.1514,941.6765,463.1556,941.934,461.834,941.934C460.5078,941.934,459.5052,941.6765,458.8262,941.1615C458.1517,940.642,457.8144,939.8763,457.8144,938.8646C457.8144,938.2084,457.9899,937.6661,458.3408,937.2377C458.6963,936.8047,459.2204,936.4926,459.9131,936.3012M460.5283,934.2572C460.5283,934.6628,460.64,934.975,460.8633,935.1937C461.0911,935.4125,461.4147,935.5219,461.834,935.5218C462.2441,935.5219,462.5609,935.4125,462.7842,935.1937C463.0075,934.975,463.1191,934.6628,463.1191,934.2572C463.1191,933.8516,463.0075,933.5417,462.7842,933.3275C462.5609,933.1088,462.2441,932.9994,461.834,932.9994C461.4147,932.9994,461.0911,933.1088,460.8633,933.3275C460.64,933.5463,460.5283,933.8562,460.5283,934.2572"/>
              <path id="path6580" fill="#ffffff" d="M473.1338,936.6224C473.1338,935.3464,473.013,934.4486,472.7715,933.9291C472.5345,933.405,472.1335,933.143,471.5684,933.1429C471.0032,933.1429,470.5999,933.405,470.3584,933.9291C470.1169,934.4486,469.9961,935.3464,469.9961,936.6224C469.9961,937.9121,470.1169,938.8213,470.3584,939.35C470.5999,939.8786,471.0032,940.1429,471.5684,940.1429C472.1289,940.1429,472.5299,939.8786,472.7715,939.35C473.013,938.8213,473.1338,937.9121,473.1338,936.6224M475.7656,936.6429C475.7656,938.3337,475.401,939.6394,474.6719,940.5599C473.9427,941.476,472.9082,941.934,471.5684,941.934C470.224,941.934,469.1872,941.476,468.458,940.5599C467.7288,939.6394,467.3643,938.3337,467.3643,936.6429C467.3643,934.9476,467.7288,933.642,468.458,932.7259C469.1872,931.8054,470.224,931.3451,471.5684,931.3451C472.9082,931.3451,473.9427,931.8054,474.6719,932.7259C475.401,933.642,475.7656,934.9476,475.7656,936.6429"/>
            </g>
            <g id="text6363-7-5-9" fill="#ffffff" stroke="none">
              <path id="path6583" fill="#ffffff" d="M429.7988,968.2377L432.1231,968.2377L432.1231,961.641L429.7373,962.1332L429.7373,960.3422L432.1094,959.85L434.6113,959.85L434.6113,968.2377L436.9356,968.2377L436.9356,970.056L429.7988,970.056L429.7988,968.2377"/>
              <path id="path6585" fill="#ffffff" d="M444.332,964.9428C444.332,963.6667,444.2113,962.7689,443.9697,962.2494C443.7327,961.7253,443.3317,961.4633,442.7666,961.4633C442.2015,961.4633,441.7982,961.7253,441.5566,962.2494C441.3151,962.7689,441.1943,963.6667,441.1943,964.9428C441.1943,966.2325,441.3151,967.1417,441.5566,967.6703C441.7982,968.1989,442.2015,968.4633,442.7666,968.4633C443.3271,968.4633,443.7282,968.1989,443.9697,967.6703C444.2113,967.1417,444.332,966.2325,444.332,964.9428M446.9639,964.9633C446.9639,966.654,446.5993,967.9597,445.8701,968.8802C445.1409,969.7963,444.1064,970.2543,442.7666,970.2543C441.4222,970.2543,440.3854,969.7963,439.6563,968.8802C438.9271,967.9597,438.5625,966.654,438.5625,964.9633C438.5625,963.2679,438.9271,961.9623,439.6563,961.0462C440.3854,960.1257,441.4222,959.6654,442.7666,959.6654C444.1064,959.6654,445.1409,960.1257,445.8701,961.0462C446.5993,961.9623,446.9639,963.2679,446.9639,964.9633"/>
              <path id="path6587" fill="#ffffff" d="M454.0664,964.9428C454.0664,963.6667,453.9456,962.7689,453.7041,962.2494C453.4671,961.7253,453.0661,961.4633,452.501,961.4633C451.9359,961.4633,451.5326,961.7253,451.291,962.2494C451.0495,962.7689,450.9287,963.6667,450.9287,964.9428C450.9287,966.2325,451.0495,967.1417,451.291,967.6703C451.5326,968.1989,451.9359,968.4633,452.501,968.4633C453.0615,968.4633,453.4626,968.1989,453.7041,967.6703C453.9456,967.1417,454.0664,966.2325,454.0664,964.9428M456.6982,964.9633C456.6982,966.654,456.3336,967.9597,455.6045,968.8802C454.8753,969.7963,453.8408,970.2543,452.501,970.2543C451.1566,970.2543,450.1198,969.7963,449.3906,968.8802C448.6615,967.9597,448.2969,966.654,448.2969,964.9633C448.2969,963.2679,448.6615,961.9623,449.3906,961.0462C450.1198,960.1257,451.1566,959.6654,452.501,959.6654C453.8408,959.6654,454.8753,960.1257,455.6045,961.0462C456.3337,961.9623,456.6982,963.2679,456.6982,964.9633"/>
            </g>
            <g id="text6363-7-5-9-2" fill="#ffffff" stroke="none">
              <path id="path6590" fill="#ffffff" d="M389.5107,976.4408L391.835,976.4408L391.835,969.8441L389.4492,970.3363L389.4492,968.5453L391.8213,968.0531L394.3232,968.0531L394.3232,976.4408L396.6475,976.4408L396.6475,978.2592L389.5107,978.2592L389.5107,976.4408"/>
              <path id="path6592" fill="#ffffff" d="M401.6377,976.3246L406.1289,976.3246L406.1289,978.2592L398.7119,978.2592L398.7119,976.3246L402.4375,973.0365C402.7702,972.7357,403.0163,972.4418,403.1758,972.1547C403.3353,971.8676,403.415,971.5691,403.415,971.2592C403.415,970.7806,403.2533,970.3956,402.9297,970.1039C402.6107,969.8122,402.1846,969.6664,401.6514,969.6664C401.2412,969.6664,400.7923,969.7553,400.3047,969.933C399.8171,970.1062,399.2953,970.3659,398.7393,970.7123L398.7393,968.4701C399.3317,968.2741,399.9173,968.126,400.4961,968.0258C401.0749,967.9209,401.6423,967.8685,402.1982,967.8685C403.4196,967.8685,404.3675,968.1374,405.042,968.6752C405.721,969.2129,406.0605,969.9626,406.0606,970.9242C406.0605,971.4802,405.917,971.9997,405.6299,972.4828C405.3428,972.9613,404.7389,973.6039,403.8184,974.4105L401.6377,976.3246"/>
              <path id="path6594" fill="#ffffff" d="M413.7783,973.1459C413.7783,971.8698,413.6576,970.972,413.416,970.4525C413.179,969.9284,412.778,969.6664,412.2129,969.6664C411.6478,969.6664,411.2445,969.9284,411.0029,970.4525C410.7614,970.972,410.6406,971.8698,410.6406,973.1459C410.6406,974.4356,410.7614,975.3448,411.0029,975.8734C411.2445,976.4021,411.6478,976.6664,412.2129,976.6664C412.7734,976.6664,413.1745,976.4021,413.416,975.8734C413.6576,975.3448,413.7783,974.4356,413.7783,973.1459M416.4102,973.1664C416.4102,974.8571,416.0456,976.1628,415.3164,977.0834C414.5872,977.9994,413.5527,978.4574,412.2129,978.4574C410.8685,978.4574,409.8317,977.9994,409.1025,977.0834C408.3734,976.1628,408.0088,974.8571,408.0088,973.1664C408.0088,971.4711,408.3734,970.1654,409.1025,969.2494C409.8317,968.3288,410.8685,967.8685,412.2129,967.8685C413.5527,967.8685,414.5872,968.3288,415.3164,969.2494C416.0456,970.1654,416.4102,971.4711,416.4102,973.1664"/>
            </g>
            <g id="text6363-7-5-9-2-4" fill="#ffffff" stroke="none">
              <path id="path6597" fill="#ffffff" d="M360.3125,952.9344L362.6368,952.9344L362.6368,946.3378L360.251,946.83L360.251,945.0389L362.6231,944.5467L365.125,944.5467L365.125,952.9344L367.4493,952.9344L367.4493,954.7528L360.3125,954.7528L360.3125,952.9344"/>
              <path id="path6599" fill="#ffffff" d="M373.5606,946.7138L370.6758,950.9862L373.5606,950.9862L373.5606,946.7138M373.1231,944.5467L376.0489,944.5467L376.0489,950.9862L377.5049,950.9862L377.5049,952.8934L376.0489,952.8934L376.0489,954.7528L373.5606,954.7528L373.5606,952.8934L369.0352,952.8934L369.0352,950.6376L373.1231,944.5468"/>
              <path id="path6601" fill="#ffffff" d="M384.5801,949.6395C384.5801,948.3635,384.4593,947.4657,384.2178,946.9462C383.9808,946.4221,383.5798,946.16,383.0147,946.16C382.4496,946.16,382.0462,946.4221,381.8047,946.9462C381.5632,947.4657,381.4424,948.3635,381.4424,949.6395C381.4424,950.9292,381.5632,951.8384,381.8047,952.3671C382.0462,952.8957,382.4496,953.16,383.0147,953.16C383.5752,953.16,383.9763,952.8957,384.2178,952.3671C384.4593,951.8384,384.5801,950.9292,384.5801,949.6395M387.2119,949.66C387.2119,951.3508,386.8473,952.6565,386.1182,953.577C385.389,954.493,384.3545,954.9511,383.0147,954.9511C381.6703,954.9511,380.6335,954.493,379.9043,953.577C379.1752,952.6565,378.8106,951.3508,378.8106,949.66C378.8106,947.9647,379.1752,946.6591,379.9043,945.743C380.6335,944.8225,381.6703,944.3622,383.0147,944.3622C384.3545,944.3622,385.389,944.8225,386.1182,945.743C386.8474,946.6591,387.2119,947.9647,387.2119,949.66"/>
            </g>
            <g id="text6363-7-5-9-2-4-2" fill="#ffffff" stroke="none">
              <path id="path6604" fill="#ffffff" d="M349.8623,927.7103L352.1865,927.7103L352.1865,921.1137L349.8008,921.6058L349.8008,919.8148L352.1729,919.3226L354.6748,919.3226L354.6748,927.7103L356.999,927.7103L356.999,929.5287L349.8623,929.5287L349.8623,927.7103"/>
              <path id="path6606" fill="#ffffff" d="M363.0215,924.4906C362.5612,924.4906,362.2148,924.641,361.9824,924.9418C361.7545,925.238,361.6406,925.6846,361.6406,926.2816C361.6406,926.8786,361.7545,927.3275,361.9824,927.6283C362.2148,927.9245,362.5612,928.0726,363.0215,928.0726C363.4863,928.0726,363.8327,927.9245,364.0605,927.6283C364.293,927.3275,364.4092,926.8786,364.4092,926.2816C364.4092,925.6846,364.293,925.238,364.0605,924.9418C363.8327,924.641,363.4863,924.4906,363.0215,924.4906M366.2754,919.5892L366.2754,921.4759C365.8424,921.2709,365.4346,921.1205,365.0518,921.0248C364.6689,920.9245,364.2952,920.8744,363.9307,920.8744C363.1468,920.8744,362.5361,921.0931,362.0986,921.5306C361.6611,921.9636,361.4059,922.6084,361.333,923.4652C361.6338,923.2419,361.9596,923.0756,362.3105,922.9662C362.6615,922.8523,363.0443,922.7953,363.459,922.7953C364.5026,922.7953,365.3434,923.1006,365.9814,923.7113C366.624,924.322,366.9453,925.1218,366.9453,926.1107C366.9453,927.2045,366.5876,928.0817,365.8721,928.7425C365.1566,929.3988,364.1973,929.7269,362.9941,929.7269C361.668,929.7269,360.6403,929.2803,359.9111,928.3871C359.1865,927.4893,358.8242,926.2178,358.8242,924.5726C358.8242,922.8864,359.2481,921.5625,360.0957,920.601C360.9479,919.6348,362.1146,919.1517,363.5957,919.1517C364.0651,919.1517,364.5208,919.1882,364.9629,919.2611C365.4049,919.334,365.8424,919.4434,366.2754,919.5892"/>
              <path id="path6608" fill="#ffffff" d="M374.1299,924.4154C374.1299,923.1394,374.0091,922.2416,373.7676,921.722C373.5306,921.198,373.1295,920.9359,372.5645,920.9359C371.9993,920.9359,371.596,921.198,371.3545,921.722C371.113,922.2416,370.9922,923.1394,370.9922,924.4154C370.9922,925.7051,371.113,926.6143,371.3545,927.1429C371.596,927.6716,371.9993,927.9359,372.5645,927.9359C373.125,927.9359,373.526,927.6716,373.7676,927.1429C374.0091,926.6143,374.1299,925.7051,374.1299,924.4154M376.7617,924.4359C376.7617,926.1267,376.3971,927.4323,375.668,928.3529C374.9388,929.2689,373.9043,929.7269,372.5645,929.7269C371.2201,929.7269,370.1833,929.2689,369.4541,928.3529C368.7249,927.4323,368.3604,926.1267,368.3604,924.4359C368.3604,922.7406,368.7249,921.4349,369.4541,920.5189C370.1833,919.5984,371.2201,919.1381,372.5645,919.1381C373.9043,919.1381,374.9388,919.5984,375.668,920.5189C376.3971,921.4349,376.7617,922.7406,376.7617,924.4359"/>
            </g>
            <g id="text6363-7-5-9-2-4-2-9" fill="#ffffff" stroke="none">
              <path id="path6611" fill="#ffffff" d="M352.4014,904.2728L354.7256,904.2728L354.7256,897.6762L352.3398,898.1683L352.3398,896.3773L354.7119,895.8851L357.2139,895.8851L357.2139,904.2728L359.5381,904.2728L359.5381,906.0912L352.4014,906.0912L352.4014,904.2728"/>
              <path id="path6613" fill="#ffffff" d="M365.3691,901.5248C364.877,901.5248,364.4987,901.6592,364.2344,901.9281C363.9701,902.197,363.8379,902.5821,363.8379,903.0834C363.8379,903.5847,363.9701,903.9698,364.2344,904.2386C364.4987,904.503,364.877,904.6351,365.3691,904.6351C365.8568,904.6351,366.2305,904.503,366.4902,904.2386C366.75,903.9698,366.8799,903.5847,366.8799,903.0834C366.8799,902.5775,366.75,902.1924,366.4902,901.9281C366.2305,901.6592,365.8568,901.5248,365.3691,901.5248M363.4482,900.6566C362.8284,900.4698,362.3613,900.1827,362.0469,899.7953C361.7324,899.4079,361.5752,898.9248,361.5752,898.3461C361.5752,897.4848,361.8965,896.8285,362.5391,896.3773C363.1816,895.9262,364.125,895.7006,365.3691,895.7006C366.6042,895.7006,367.543,895.9262,368.1856,896.3773C368.8281,896.8239,369.1494,897.4802,369.1494,898.3461C369.1494,898.9249,368.9899,899.4079,368.6709,899.7953C368.3564,900.1827,367.8893,900.4698,367.2695,900.6566C367.9622,900.848,368.484,901.1602,368.835,901.5931C369.1904,902.0215,369.3682,902.5639,369.3682,903.2201C369.3682,904.2318,369.0309,904.9974,368.3565,905.517C367.6865,906.0319,366.6908,906.2894,365.3691,906.2894C364.043,906.2894,363.0404,906.0319,362.3613,905.517C361.6869,904.9974,361.3496,904.2318,361.3496,903.2201C361.3496,902.5638,361.5251,902.0215,361.876,901.5931C362.2314,901.1602,362.7555,900.848,363.4482,900.6566M364.0635,898.6127C364.0635,899.0183,364.1751,899.3304,364.3984,899.5492C364.6263,899.7679,364.9499,899.8773,365.3691,899.8773C365.7793,899.8773,366.096,899.7679,366.3193,899.5492C366.5426,899.3304,366.6543,899.0183,366.6543,898.6127C366.6543,898.2071,366.5426,897.8972,366.3193,897.683C366.096,897.4642,365.7793,897.3549,365.3691,897.3549C364.9499,897.3549,364.6263,897.4642,364.3984,897.683C364.1751,897.9017,364.0635,898.2116,364.0635,898.6127"/>
              <path id="path6615" fill="#ffffff" d="M376.6689,900.9779C376.6689,899.7019,376.5482,898.8041,376.3066,898.2845C376.0697,897.7605,375.6686,897.4984,375.1035,897.4984C374.5384,897.4984,374.1351,897.7605,373.8936,898.2845C373.652,898.8041,373.5313,899.7019,373.5313,900.9779C373.5313,902.2676,373.652,903.1768,373.8936,903.7054C374.1351,904.2341,374.5384,904.4984,375.1035,904.4984C375.6641,904.4984,376.0651,904.2341,376.3066,903.7054C376.5482,903.1768,376.6689,902.2676,376.6689,900.9779M379.3008,900.9984C379.3008,902.6892,378.9362,903.9948,378.207,904.9154C377.4779,905.8314,376.4433,906.2894,375.1035,906.2894C373.7591,906.2894,372.7223,905.8314,371.9932,904.9154C371.264,903.9948,370.8994,902.6892,370.8994,900.9984C370.8994,899.3031,371.264,897.9974,371.9932,897.0814C372.7223,896.1609,373.7591,895.7006,375.1035,895.7006C376.4434,895.7006,377.4779,896.1609,378.207,897.0814C378.9362,897.9974,379.3008,899.3031,379.3008,900.9984"/>
            </g>
            <g id="text6363-7-5-9-2-4-2-9-6" fill="#ffffff" stroke="none">
              <path id="path6618" fill="#ffffff" d="M366.3174,883.4535L370.8086,883.4535L370.8086,885.3881L363.3916,885.3881L363.3916,883.4535L367.1172,880.1654C367.4499,879.8646,367.696,879.5707,367.8555,879.2836C368.015,878.9965,368.0947,878.698,368.0947,878.3881C368.0947,877.9095,367.9329,877.5245,367.6094,877.2328C367.2904,876.9411,366.8643,876.7953,366.3311,876.7953C365.9209,876.7953,365.472,876.8842,364.9844,877.0619C364.4967,877.2351,363.9749,877.4948,363.4189,877.8412L363.4189,875.599C364.0114,875.4031,364.597,875.2549,365.1758,875.1547C365.7545,875.0499,366.3219,874.9975,366.8779,874.9974C368.0993,874.9974,369.0472,875.2663,369.7217,875.8041C370.4007,876.3419,370.7402,877.0915,370.7402,878.0531C370.7402,878.6091,370.5967,879.1286,370.3096,879.6117C370.0224,880.0902,369.4186,880.7328,368.4981,881.5394L366.3174,883.4535"/>
              <path id="path6620" fill="#ffffff" d="M378.458,880.2748C378.458,878.9987,378.3372,878.101,378.0957,877.5814C377.8587,877.0573,377.4577,876.7953,376.8926,876.7953C376.3275,876.7953,375.9241,877.0573,375.6826,877.5814C375.4411,878.101,375.3203,878.9987,375.3203,880.2748C375.3203,881.5645,375.4411,882.4737,375.6826,883.0023C375.9241,883.531,376.3275,883.7953,376.8926,883.7953C377.4531,883.7953,377.8542,883.531,378.0957,883.0023C378.3372,882.4737,378.458,881.5645,378.458,880.2748M381.0898,880.2953C381.0898,881.986,380.7252,883.2917,379.9961,884.2123C379.2669,885.1283,378.2324,885.5863,376.8926,885.5863C375.5482,885.5863,374.5114,885.1283,373.7822,884.2123C373.0531,883.2917,372.6885,881.986,372.6885,880.2953C372.6885,878.6,373.0531,877.2943,373.7822,876.3783C374.5114,875.4577,375.5482,874.9974,376.8926,874.9974C378.2324,874.9974,379.2669,875.4577,379.9961,876.3783C380.7252,877.2943,381.0898,878.6,381.0898,880.2953"/>
              <path id="path6622" fill="#ffffff" d="M388.1924,880.2748C388.1924,878.9987,388.0716,878.101,387.8301,877.5814C387.5931,877.0573,387.192,876.7953,386.627,876.7953C386.0618,876.7953,385.6585,877.0573,385.417,877.5814C385.1755,878.101,385.0547,878.9987,385.0547,880.2748C385.0547,881.5645,385.1755,882.4737,385.417,883.0023C385.6585,883.531,386.0618,883.7953,386.627,883.7953C387.1875,883.7953,387.5885,883.531,387.8301,883.0023C388.0716,882.4737,388.1924,881.5645,388.1924,880.2748M390.8242,880.2953C390.8242,881.986,390.4596,883.2917,389.7305,884.2123C389.0013,885.1283,387.9668,885.5863,386.627,885.5863C385.2826,885.5863,384.2458,885.1283,383.5166,884.2123C382.7874,883.2917,382.4229,881.986,382.4229,880.2953C382.4229,878.6,382.7874,877.2943,383.5166,876.3783C384.2458,875.4577,385.2826,874.9974,386.627,874.9974C387.9668,874.9974,389.0013,875.4577,389.7305,876.3783C390.4596,877.2943,390.8242,878.6,390.8242,880.2953"/>
            </g>
          </g>
          <g id="g4378">
            <g id="g5997" transform="translate(-674.6093, -6.6406)">
              <path id="path4113-8" fill="#ffffff" stroke="none" d="M455.8125,861.5653L449.9375,869.659C482.0205,892.9687,491.3149,936.7484,471.5,971.0965L480.1563,976.0965C502.5483,937.3123,492.0436,887.8887,455.8125,861.5653z"/>
              <path id="path4113-8-1-4" fill="#00c300" stroke="none" d="M459.1875,877.5653L452.0938,884.6278C452.0987,884.6328,452.0888,884.6537,452.0938,884.659C478.4381,911.0207,478.4488,953.7414,452.0938,980.0965C430.491,1001.6992,397.0828,1006.0906,370.625,990.8152L365.625,999.4715C396.0025,1017.0099,434.3844,1011.9621,459.1875,987.159C489.4531,956.8934,489.4531,907.8309,459.1875,877.5652L459.1875,877.5653z"/>
              <path id="path4113-8-1-4-1" fill="#f0f000" stroke="none" d="M337.8125,943.6278L327.9688,945.284C331.8207,968.0583,345.6218,987.9227,365.625,999.4715L370.625,990.8153C353.2028,980.7566,341.1674,963.4635,337.8125,943.6278z"/>
            </g>
            <g id="g4261">
              <rect id="rect4159-6-2-2-2-1-2" fill="#ff0000" stroke="none" transform="rotate(-99.59999959259274)" x="-868.6912" y="-513.3314" width="2" height="25"/>
              <g id="g4222">
                <g id="g4190">
                  <rect id="rect4159-6-0" fill="#ffffff" stroke="none" transform="rotate(109.99999983634551)" x="961.3193" y="-155.1782" width="2" height="25"/>
                  <rect id="rect4159-6-3" fill="#ffffff" stroke="none" transform="rotate(130.00000012862705)" x="881.8471" y="-480.5308" width="2" height="25"/>
                  <rect id="rect4159-6-6" fill="#ffffff" stroke="none" transform="rotate(149.99999989158383)" x="695.8906" y="-759.0812" width="2" height="25"/>
                  <rect id="rect4159-6-7" fill="#ffffff" stroke="none" transform="rotate(169.99999983838646)" x="425.8787" y="-957.2321" width="2" height="25"/>
                  <rect id="rect4159-6-75" fill="#ffffff" stroke="none" transform="rotate(-169.99999983838646)" x="104.379" y="-1051.0835" width="2" height="25"/>
                  <rect id="rect4159-6-2" fill="#ffffff" stroke="none" transform="rotate(-149.99999989158383)" x="-229.831" y="-1029.3156" width="2" height="25"/>
                  <rect id="rect4159-0-5" fill="#ffffff" stroke="none" transform="rotate(100.00000016161361)" x="958.0835" y="12.879" width="1" height="20"/>
                  <rect id="rect4159-0-5-8" fill="#ffffff" stroke="none" transform="rotate(120.00000010841622)" x="936.3156" y="-321.331" width="1" height="20"/>
                  <rect id="rect4159-0-5-8-9" fill="#ffffff" stroke="none" transform="rotate(139.99999987137298)" x="801.5538" y="-627.9406" width="1" height="20"/>
                  <rect id="rect4159-0-5-8-9-3" fill="#ffffff" stroke="none" transform="rotate(159.9999996252503)" x="570.0526" y="-869.9681" width="1" height="20"/>
                  <rect id="rect4159-0-5-8-9-3-9" fill="#ffffff" stroke="none" transform="scale(-1, -1)" x="269.7343" y="-1018.2216" width="1" height="20"/>
                  <rect id="rect4159-0-5-8-9-3-9-4" fill="#ffffff" stroke="none" transform="rotate(-160.0000001636545)" x="-63.1782" y="-1054.8193" width="1" height="20"/>
                </g>
                <g id="g4204">
                  <rect id="rect4159-6-2-2" fill="#ffffff" stroke="none" transform="rotate(-131.9999995558565)" x="-508.1232" y="-912.7519" width="2" height="25"/>
                  <rect id="rect4159-6-2-2-2" fill="#ffffff" stroke="none" transform="rotate(-113.99999978406801)" x="-736.7745" y="-715.8962" width="2" height="25"/>
                  <rect id="rect4159-6-2-2-2-1" fill="#ffffff" stroke="none" transform="rotate(-95.9999997860633)" x="-893.4033" y="-458.0182" width="2" height="25"/>
                  <rect id="rect4159-0-5-8-9-3-9-4-2" fill="#ffffff" stroke="none" transform="rotate(-141.00000035478578)" x="-373.064" y="-981.9848" width="1" height="20"/>
                  <rect id="rect4159-0-5-8-9-3-9-4-2-7" fill="#ffffff" stroke="none" transform="rotate(-123.00000048748042)" x="-629.6954" y="-823.3217" width="1" height="20"/>
                  <rect id="rect4159-0-5-8-9-3-9-4-2-7-3" fill="#ffffff" stroke="none" transform="rotate(-105.00000036430562)" x="-824.7366" y="-593.1207" width="1" height="20"/>
                </g>
                <g id="g4212">
                  <rect id="rect4159-6-2-2-2-1-5" fill="#ffffff" stroke="none" transform="rotate(-83.99999958422724)" x="-949.8976" y="-264.4897" width="2" height="25"/>
                  <rect id="rect4159-6-2-2-2-1-5-6" fill="#ffffff" stroke="none" transform="rotate(-71.99999958202429)" x="-964.9205" y="-63.4444" width="2" height="25"/>
                  <rect id="rect4159-6-2-2-2-1-5-6-0" fill="#ffffff" stroke="none" transform="rotate(-59.99999939538781)" x="-937.8156" y="136.331" width="2" height="25"/>
                  <rect id="rect4159-6-2-2-2-1-5-6-0-6" fill="#ffffff" stroke="none" transform="rotate(-47.999999634969306)" x="-869.7673" y="326.1053" width="2" height="25"/>
                  <rect id="rect4159-0-5-8-9-3-9-4-2-7-3-6" fill="#ffffff" stroke="none" transform="rotate(-90)" x="-926.2216" y="-362.7344" width="1" height="20"/>
                  <rect id="rect4159-0-5-8-9-3-9-4-2-7-3-6-2" fill="#ffffff" stroke="none" transform="rotate(-78.00000003708885)" x="-962.1772" y="-164.3607" width="1" height="20"/>
                  <rect id="rect4159-0-5-8-9-3-9-4-2-7-3-6-2-3" fill="#ffffff" stroke="none" transform="rotate(-66.00000021593199)" x="-956.1029" y="37.1535" width="1" height="20"/>
                  <rect id="rect4159-0-5-8-9-3-9-4-2-7-3-6-2-3-0" fill="#ffffff" stroke="none" transform="rotate(-54.00000029570195)" x="-908.2642" y="233.0013" width="1" height="20"/>
                </g>
                <g id="g4181">
                  <rect id="rect4159-6" fill="#ffffff" stroke="none" transform="rotate(35.99999970429804)" x="324.5013" y="815.2643" width="2" height="25"/>
                  <rect id="rect4159-0-55" fill="#ffffff" stroke="none" transform="rotate(45)" x="462.9995" y="753.1685" width="1" height="20"/>
                  <rect id="rect4159-0-55-9" fill="#ffffff" stroke="none" transform="rotate(62.99999987775689)" x="701.6401" y="568.5493" width="1" height="20"/>
                  <rect id="rect4159-0-55-9-0" fill="#ffffff" stroke="none" transform="rotate(80.99999971399058)" x="871.5504" y="319.2221" width="1" height="20"/>
                  <rect id="rect4159-6-74" fill="#ffffff" stroke="none" transform="rotate(53.99999949539321)" x="589.0847" y="670.2497" width="2" height="25"/>
                  <rect id="rect4159-6-74-0" fill="#ffffff" stroke="none" transform="rotate(71.99999958202429)" x="795.9066" y="450.5719" width="2" height="25"/>
                  <rect id="rect4159-6-74-0-9" fill="#ffffff" stroke="none" transform="rotate(90)" x="924.7216" y="177.7344" width="2" height="25"/>
                </g>
              </g>
            </g>
          </g>
        </g>
      </g>
    </g>
  </g>
  <path fill="#1e1e1e" stroke="#1e1e1e" transform="translate(94.2866, 45.7518)" d="M0,0C0,0,-27.1639,0,0,0z"/>
  <rect fill="#1e1e1e" stroke="#1e1e1e" transform="translate(121.2294, 47.0018)translate(-32.4233, -9.5165)" width="64.8467" height="19.033"/>
  <text xml:space="preserve" transform="translate(70.1769, 55.4098)" data-gn-el-type="text" style="white-space:pre"><tspan fill="#ffffff" font-size="16px">Groundspeed</tspan><tspan fill="#007fff" font-size="20px"> </tspan></text>
  <rect fill="#1e1e1e" stroke="#1e1e1e" transform="translate(118.4316, 145.3818)translate(-22.273, -8.1766)" width="44.546" height="16.3532"/>
  <text fill="#ffffff" font-size="16px" xml:space="preserve" transform="translate(99.8732, 147.2494)" data-gn-el-type="text" style="white-space:pre"><tspan>KM/T </tspan></text>
</svg>